<svg width="70" height="24" viewBox="0 0 70 24" fill="none" xmlns="http://www.w3.org/2000/svg">
<path d="M39.1013 4.33736H30.899V19.0766H39.1013V4.33736Z" fill="#FF5F00"/>
<path d="M31.4198 11.707C31.4185 10.2875 31.7402 8.88631 32.3605 7.60951C32.9808 6.3327 33.8835 5.21375 35.0001 4.33736C33.6173 3.25043 31.9565 2.57449 30.2076 2.38679C28.4588 2.19909 26.6924 2.50719 25.1103 3.27591C23.5283 4.04462 22.1945 5.24292 21.2613 6.73384C20.3281 8.22476 19.8333 9.94813 19.8333 11.707C19.8333 13.4659 20.3281 15.1892 21.2613 16.6802C22.1945 18.1711 23.5283 19.3694 25.1103 20.1381C26.6924 20.9068 28.4588 21.2149 30.2076 21.0272C31.9565 20.8395 33.6173 20.1636 35.0001 19.0766C33.8835 18.2002 32.9808 17.0813 32.3605 15.8045C31.7402 14.5277 31.4185 13.1265 31.4198 11.707Z" fill="#EB001B"/>
<path d="M50.1666 11.707C50.1667 13.4658 49.6718 15.1892 48.7387 16.6801C47.8056 18.171 46.4718 19.3693 44.8898 20.1381C43.3078 20.9068 41.5414 21.2149 39.7926 21.0272C38.0437 20.8395 36.383 20.1636 35.0001 19.0766C36.1159 18.1994 37.0178 17.0802 37.638 15.8036C38.2582 14.527 38.5805 13.1263 38.5805 11.707C38.5805 10.2877 38.2582 8.88697 37.638 7.61037C37.0178 6.33377 36.1159 5.21464 35.0001 4.33736C36.383 3.25043 38.0437 2.57449 39.7926 2.38679C41.5414 2.19909 43.3078 2.50721 44.8898 3.27593C46.4718 4.04465 47.8056 5.24295 48.7387 6.73387C49.6718 8.22479 50.1667 9.94816 50.1666 11.707Z" fill="#F79E1B"/>
</svg>
