<svg width="17" height="17" viewBox="0 0 17 17" fill="none" xmlns="http://www.w3.org/2000/svg">
<path d="M16.7673 0.232661C16.5445 0.0098892 16.1485 0.0098892 15.9257 0.232661L8.49996 7.6584L1.07422 0.232661C0.851443 0.0098892 0.455403 0.0098892 0.232631 0.232661C0.00985868 0.455434 0.00985868 0.851473 0.232631 1.07425L7.65837 8.49999L0.232631 15.9257C0.00985868 16.1485 0.00985868 16.5445 0.232631 16.7673C0.356393 16.8911 0.504908 16.9406 0.653423 16.9406C0.801938 16.9406 0.950453 16.8911 1.07422 16.7673L8.49996 9.34157L15.9257 16.7673C16.0495 16.8911 16.198 16.9406 16.3465 16.9406C16.495 16.9406 16.6435 16.8911 16.7673 16.7673C16.9901 16.5445 16.9901 16.1485 16.7673 15.9257L9.34154 8.49999L16.7673 1.07425C16.9901 0.851473 16.9901 0.480186 16.7673 0.232661Z" fill="black"/>
</svg>
