<svg width="54" height="40" viewBox="0 0 54 40" fill="none" xmlns="http://www.w3.org/2000/svg">
<path d="M0 0H46C50.4183 0 54 3.58172 54 8V32C54 36.4183 50.4183 40 46 40H0V0Z" fill="#319DFF"/>
<path d="M24.6658 21.2646C24.339 21.5474 23.8675 21.5883 23.4969 21.3659L17.8582 17.9827C17.1256 17.5432 17.246 16.4467 18.0565 16.1765L35.3097 10.4255C36.0915 10.1649 36.8352 10.9086 36.5746 11.6904L30.8235 28.9436C30.5534 29.7541 29.4569 29.8745 29.0174 29.1418L25.6341 23.5032C25.4118 23.1326 25.4527 22.6611 25.7355 22.3343L30.7977 16.4845C30.9601 16.2969 30.7032 16.04 30.5156 16.2024L24.6658 21.2646Z" fill="white"/>
</svg>
