<svg width="40" height="41" viewBox="0 0 40 41" fill="none" xmlns="http://www.w3.org/2000/svg">
<path fill-rule="evenodd" clip-rule="evenodd" d="M20.0001 37.1667C12.8118 34.9596 7.55054 28.2311 6.66675 22.1667V10.5L20.0001 3.83334L33.3334 10.5V22.1667C32.4496 28.2311 27.1884 34.9596 20.0001 37.1667ZM25.0001 30.5883V30.5H25.0953L25.0001 30.5883ZM12.321 21.8809C11.6696 21.2295 11.6702 20.1747 12.321 19.5239C12.9718 18.873 14.0266 18.8725 14.678 19.5239L18.2136 23.0594L25.2846 15.9883C25.9355 15.3375 26.9903 15.3369 27.6417 15.9883C28.2931 16.6397 28.2925 17.6945 27.6417 18.3454L19.3921 26.5949C18.7413 27.2458 17.6865 27.2463 17.0351 26.5949L12.321 21.8809Z" fill="#17B5BF"/>
</svg>
