<svg width="40" height="41" viewBox="0 0 40 41" fill="none" xmlns="http://www.w3.org/2000/svg">
<path d="M3.33325 8.83332C3.33325 7.91285 4.07944 7.16666 4.99992 7.16666H21.6666C22.5871 7.16666 23.3333 7.91285 23.3333 8.83332V30.5H18.3333C17.4128 30.5 16.6938 29.7333 16.3926 28.8635C15.7148 26.9058 13.8549 25.5 11.6666 25.5C9.47828 25.5 7.61833 26.9058 6.94054 28.8635C6.63939 29.7333 5.92039 30.5 4.99992 30.5C4.07944 30.5 3.33325 29.7538 3.33325 28.8333V8.83332Z" fill="#0DA678"/>
<path d="M14.9999 30.5C14.9999 28.659 13.5075 27.1667 11.6666 27.1667C9.82566 27.1667 8.33325 28.659 8.33325 30.5C8.33325 32.341 9.82566 33.8333 11.6666 33.8333C13.5075 33.8333 14.9999 32.341 14.9999 30.5Z" fill="#0DA678"/>
<path fill-rule="evenodd" clip-rule="evenodd" d="M23.3333 8.83332L35.7453 15.0393C36.3099 15.3217 36.6666 15.8988 36.6666 16.53V29.6667C36.6666 30.1269 36.2935 30.5 35.8333 30.5C35.373 30.5 35.0072 30.1241 34.9314 29.6701C34.5361 27.3037 32.4786 25.5 29.9999 25.5C27.8116 25.5 25.9517 26.9058 25.2739 28.8635C24.9727 29.7333 24.2537 30.5 23.3333 30.5V8.83332ZM24.9999 14.8634C24.9999 13.6244 26.3038 12.8186 27.4119 13.3727L34.0786 16.706C34.6432 16.9883 34.9999 17.5654 34.9999 18.1967V18.8333C34.9999 19.7538 34.2537 20.5 33.3333 20.5H26.6666C25.7461 20.5 24.9999 19.7538 24.9999 18.8333V14.8634Z" fill="#0DA678"/>
<path d="M33.3333 30.5C33.3333 28.659 31.8408 27.1667 29.9999 27.1667C28.159 27.1667 26.6666 28.659 26.6666 30.5C26.6666 32.341 28.159 33.8333 29.9999 33.8333C31.8408 33.8333 33.3333 32.341 33.3333 30.5Z" fill="#0DA678"/>
</svg>
