<svg width="40" height="41" viewBox="0 0 40 41" fill="none" xmlns="http://www.w3.org/2000/svg">
<path fill-rule="evenodd" clip-rule="evenodd" d="M20.2614 4.4799C20.5585 4.63397 20.8351 4.8361 21.0768 5.07778L35.4215 19.4225C36.7243 20.7253 36.7233 22.8347 35.4215 24.1365L23.6364 35.9216C22.3346 37.2234 20.2252 37.2244 18.9224 35.9216L4.57766 21.5769C3.95388 20.9532 3.60142 20.1041 3.60156 19.2201V7.43495C3.60127 5.59381 5.09369 4.1014 6.93483 4.10168H18.7199C19.2623 4.10255 19.7895 4.23361 20.2614 4.4799ZM14.2083 14.7084C15.5101 13.4066 15.5111 11.2972 14.2083 9.99438C12.9055 8.69158 10.7961 8.69258 9.49426 9.99438C8.19246 11.2962 8.19145 13.4056 9.49426 14.7084C10.7971 16.0112 12.9065 16.0102 14.2083 14.7084Z" fill="#E4003F"/>
</svg>
