<svg width="21" height="21" viewBox="0 0 21 21" fill="none" xmlns="http://www.w3.org/2000/svg">
<path fill-rule="evenodd" clip-rule="evenodd" d="M13.8334 4.00016H7.16675C5.3258 4.00016 3.83341 5.49255 3.83341 7.3335V14.0002C3.83341 15.8411 5.3258 17.3335 7.16675 17.3335H13.8334C15.6744 17.3335 17.1667 15.8411 17.1667 14.0002V7.3335C17.1667 5.49255 15.6744 4.00016 13.8334 4.00016ZM7.16675 2.3335C4.40532 2.3335 2.16675 4.57207 2.16675 7.3335V14.0002C2.16675 16.7616 4.40532 19.0002 7.16675 19.0002H13.8334C16.5948 19.0002 18.8334 16.7616 18.8334 14.0002V7.3335C18.8334 4.57207 16.5948 2.3335 13.8334 2.3335H7.16675ZM10.5001 13.1668C11.8808 13.1668 13.0001 12.0475 13.0001 10.6668C13.0001 9.28612 11.8808 8.16683 10.5001 8.16683C9.11937 8.16683 8.00008 9.28612 8.00008 10.6668C8.00008 12.0475 9.11937 13.1668 10.5001 13.1668ZM10.5001 14.8335C12.8013 14.8335 14.6667 12.968 14.6667 10.6668C14.6667 8.36564 12.8013 6.50016 10.5001 6.50016C8.19889 6.50016 6.33341 8.36564 6.33341 10.6668C6.33341 12.968 8.19889 14.8335 10.5001 14.8335ZM14.6664 7.66691C15.3108 7.66691 15.8331 7.14458 15.8331 6.50024C15.8331 5.85591 15.3108 5.33358 14.6664 5.33358C14.0221 5.33358 13.4998 5.85591 13.4998 6.50024C13.4998 7.14458 14.0221 7.66691 14.6664 7.66691Z" fill="#7D8FA9"/>
</svg>
