<svg width="21" height="21" viewBox="0 0 21 21" fill="none" xmlns="http://www.w3.org/2000/svg">
<path d="M5.75063 7.04964V19.0002H2.55867V7.04964H5.75063ZM2.35986 3.935C2.35986 3.47111 2.52185 3.08823 2.84584 2.78633C3.16982 2.48444 3.60425 2.3335 4.14913 2.3335C4.68664 2.3335 5.11739 2.48444 5.44137 2.78633C5.77272 3.08823 5.93839 3.47111 5.93839 3.935C5.93839 4.39888 5.77272 4.78177 5.44137 5.08366C5.11739 5.38555 4.68664 5.5365 4.14913 5.5365C3.60425 5.5365 3.16982 5.38555 2.84584 5.08366C2.52185 4.78177 2.35986 4.39888 2.35986 3.935Z" fill="#7D8FA9"/>
<path d="M11.4939 9.601V19.0002H8.31303V7.04964H11.2951L11.4939 9.601ZM11.0301 12.6052H10.1686C10.1686 11.7216 10.2827 10.9264 10.511 10.2195C10.7392 9.50528 11.0595 8.89781 11.4719 8.39711C11.8842 7.88905 12.3739 7.50248 12.9408 7.23741C13.5152 6.96497 14.1558 6.82875 14.8626 6.82875C15.4222 6.82875 15.934 6.90974 16.3979 7.07173C16.8617 7.23372 17.2594 7.49144 17.5907 7.84487C17.9294 8.19831 18.1871 8.66587 18.3638 9.24757C18.5479 9.82926 18.64 10.5398 18.64 11.3792V19.0002H15.437V11.3682C15.437 10.838 15.3633 10.4257 15.2161 10.1312C15.0688 9.83663 14.8516 9.63045 14.5644 9.51264C14.2846 9.38747 13.9385 9.32488 13.5262 9.32488C13.0991 9.32488 12.7273 9.40956 12.4107 9.57891C12.1014 9.74827 11.8437 9.98389 11.6375 10.2858C11.4387 10.5803 11.2878 10.9264 11.1847 11.324C11.0816 11.7216 11.0301 12.1487 11.0301 12.6052Z" fill="#7D8FA9"/>
</svg>
