<svg width="181" height="53" viewBox="0 0 181 53" fill="none" xmlns="http://www.w3.org/2000/svg">
<path d="M23.1669 26.7241C22.0998 26.3595 21.1296 25.995 20.2565 25.6304C19.3834 25.2415 18.6315 24.7797 18.0009 24.245C17.3703 23.7103 16.8731 23.0783 16.5093 22.3492C16.1698 21.5957 16 20.6842 16 19.6148C16 17.5489 16.7882 15.8961 18.3647 14.6565C19.9655 13.417 22.1968 12.7972 25.0587 12.7972C26.1016 12.7972 27.0718 12.8701 27.9692 13.0159C28.8666 13.1618 29.6305 13.3927 30.2611 13.7086C30.916 14.0003 31.4253 14.3892 31.7891 14.8753C32.1529 15.3371 32.3348 15.884 32.3348 16.5159C32.3348 17.1478 32.1893 17.6947 31.8983 18.1565C31.6072 18.594 31.2555 18.9707 30.8432 19.2867C30.3096 18.9464 29.5942 18.6548 28.6968 18.4117C27.7994 18.1443 26.8171 18.0107 25.75 18.0107C24.6585 18.0107 23.8582 18.1687 23.3488 18.4846C22.8395 18.7763 22.5849 19.153 22.5849 19.6148C22.5849 19.9794 22.7425 20.2832 23.0578 20.5263C23.3731 20.745 23.846 20.9516 24.4766 21.1461L26.4048 21.7658C28.6846 22.495 30.4309 23.4308 31.6436 24.5731C32.8805 25.6911 33.499 27.2224 33.499 29.1668C33.499 31.2328 32.6865 32.9098 31.0615 34.198C29.4365 35.4619 27.0475 36.0938 23.8946 36.0938C22.7789 36.0938 21.736 35.9966 20.7658 35.8022C19.8199 35.632 18.9832 35.3768 18.2556 35.0365C17.5522 34.672 16.9944 34.2345 16.5821 33.7241C16.194 33.1893 16 32.5817 16 31.9012C16 31.1963 16.2062 30.6008 16.6185 30.1147C17.0308 29.6043 17.4795 29.2154 17.9645 28.9481C18.6436 29.4828 19.4683 29.9446 20.4384 30.3335C21.4328 30.7223 22.5121 30.9168 23.6763 30.9168C24.8647 30.9168 25.7015 30.7345 26.1865 30.3699C26.6716 30.0053 26.9141 29.58 26.9141 29.0939C26.9141 28.6078 26.7201 28.2432 26.332 28.0002C25.944 27.7328 25.3983 27.4776 24.6949 27.2345L23.1669 26.7241Z" fill="#0F121E"/>
<path d="M53.9368 35.474C53.6943 35.5469 53.3062 35.6199 52.7727 35.6928C52.2633 35.7657 51.7298 35.8022 51.1719 35.8022C50.6384 35.8022 50.1533 35.7657 49.7167 35.6928C49.3044 35.6199 48.9527 35.474 48.6617 35.2553C48.3706 35.0365 48.1402 34.7449 47.9704 34.3803C47.8249 33.9914 47.7522 33.4932 47.7522 32.8855V24.7918C47.7522 23.7953 47.4975 23.1026 46.9882 22.7137C46.5031 22.3006 45.8968 22.094 45.1692 22.094C44.6841 22.094 44.2233 22.1547 43.7867 22.2762C43.3501 22.3978 42.9985 22.5436 42.7317 22.7137V35.474C42.4891 35.5469 42.1011 35.6199 41.5675 35.6928C41.0582 35.7657 40.5246 35.8022 39.9668 35.8022C39.4332 35.8022 38.9481 35.7657 38.5115 35.6928C38.0992 35.6199 37.7475 35.474 37.4565 35.2553C37.1655 35.0365 36.935 34.7449 36.7653 34.3803C36.6198 33.9914 36.547 33.4932 36.547 32.8855V11.7399C36.8138 11.6913 37.2018 11.6305 37.7112 11.5576C38.2447 11.4604 38.7783 11.4118 39.3119 11.4118C39.8455 11.4118 40.3184 11.4482 40.7307 11.5211C41.1673 11.5941 41.5311 11.7399 41.8222 11.9586C42.1132 12.1774 42.3315 12.4812 42.477 12.8701C42.6468 13.2347 42.7317 13.7208 42.7317 14.3284V17.9013C43.047 17.7798 43.5199 17.6461 44.1505 17.5003C44.8054 17.3301 45.5208 17.245 46.2969 17.245C48.6981 17.245 50.5656 17.8527 51.8995 19.0679C53.2577 20.2589 53.9368 22.0453 53.9368 24.4273V35.474Z" fill="#0F121E"/>
<path d="M76.0547 26.6512C76.0547 28.1581 75.8243 29.5071 75.3635 30.698C74.9027 31.8647 74.2478 32.8491 73.399 33.6511C72.5743 34.4532 71.5799 35.0608 70.4158 35.474C69.2516 35.8872 67.954 36.0938 66.5231 36.0938C65.0921 36.0938 63.7945 35.8751 62.6303 35.4376C61.4662 35.0001 60.4596 34.3803 59.6108 33.5782C58.7861 32.7518 58.1434 31.7553 57.6826 30.5887C57.2218 29.422 56.9914 28.1095 56.9914 26.6512C56.9914 25.2172 57.2218 23.9169 57.6826 22.7502C58.1434 21.5835 58.7861 20.5992 59.6108 19.7971C60.4596 18.9707 61.4662 18.3388 62.6303 17.9013C63.7945 17.4638 65.0921 17.245 66.5231 17.245C67.954 17.245 69.2516 17.4759 70.4158 17.9377C71.5799 18.3752 72.5743 19.0072 73.399 19.8336C74.2478 20.6356 74.9027 21.62 75.3635 22.7867C75.8243 23.9533 76.0547 25.2415 76.0547 26.6512ZM63.3216 26.6512C63.3216 28.1338 63.6005 29.2762 64.1583 30.0783C64.7404 30.856 65.5408 31.2449 66.5594 31.2449C67.5781 31.2449 68.3542 30.8439 68.8878 30.0418C69.4456 29.2397 69.7245 28.1095 69.7245 26.6512C69.7245 25.1929 69.4456 24.0748 68.8878 23.2971C68.3299 22.495 67.5417 22.094 66.5231 22.094C65.5044 22.094 64.7162 22.495 64.1583 23.2971C63.6005 24.0748 63.3216 25.1929 63.3216 26.6512Z" fill="#0F121E"/>
<path d="M87.1849 17.245C88.6401 17.245 89.9862 17.4395 91.2231 17.8284C92.4843 18.193 93.5636 18.7641 94.461 19.5419C95.3583 20.3197 96.0617 21.304 96.571 22.495C97.0804 23.6617 97.335 25.0592 97.335 26.6877C97.335 28.2432 97.1167 29.6043 96.6802 30.771C96.2436 31.9376 95.6251 32.922 94.8248 33.7241C94.0244 34.5018 93.0543 35.0851 91.9143 35.474C90.7987 35.8629 89.5496 36.0574 88.1671 36.0574C87.1242 36.0574 86.1541 35.8994 85.2567 35.5834V41.6354C85.0142 41.7083 84.6261 41.7813 84.0925 41.8542C83.559 41.9514 83.0132 42 82.4554 42C81.9218 42 81.4368 41.9636 81.0002 41.8906C80.5879 41.8177 80.2362 41.6719 79.9452 41.4531C79.6541 41.2344 79.4358 40.9306 79.2903 40.5417C79.1448 40.1771 79.072 39.691 79.072 39.0834V21.5835C79.072 20.9273 79.2054 20.3926 79.4722 19.9794C79.7633 19.5662 80.1513 19.1895 80.6364 18.8492C81.3883 18.3631 82.322 17.9742 83.4377 17.6825C84.5534 17.3909 85.8024 17.245 87.1849 17.245ZM87.2576 31.172C89.7558 31.172 91.0048 29.6772 91.0048 26.6877C91.0048 25.1321 90.6895 23.9776 90.0589 23.2242C89.4526 22.4707 88.5673 22.094 87.4032 22.094C86.9423 22.094 86.53 22.1547 86.1662 22.2762C85.8024 22.3735 85.4871 22.495 85.2203 22.6408V30.6616C85.5114 30.8074 85.8267 30.9289 86.1662 31.0262C86.5058 31.1234 86.8696 31.172 87.2576 31.172Z" fill="#0F121E"/>
<path d="M109.703 36.0938C108.272 36.0938 106.938 35.8994 105.701 35.5105C104.488 35.0973 103.421 34.4897 102.5 33.6876C101.602 32.8855 100.887 31.8768 100.353 30.6616C99.8438 29.4463 99.5892 28.0245 99.5892 26.396C99.5892 24.7918 99.8438 23.4186 100.353 22.2762C100.887 21.1096 101.578 20.1617 102.427 19.4325C103.276 18.6791 104.246 18.1322 105.337 17.7919C106.429 17.4273 107.544 17.245 108.684 17.245C109.97 17.245 111.134 17.4395 112.177 17.8284C113.244 18.2173 114.153 18.752 114.905 19.4325C115.681 20.1131 116.276 20.9273 116.688 21.8752C117.125 22.8231 117.343 23.8561 117.343 24.9741C117.343 25.8005 117.112 26.4325 116.652 26.87C116.191 27.3074 115.548 27.587 114.723 27.7085L105.737 29.0574C106.004 29.8595 106.55 30.4671 107.375 30.8803C108.199 31.2692 109.145 31.4637 110.212 31.4637C111.207 31.4637 112.14 31.3421 113.014 31.0991C113.911 30.8317 114.639 30.5279 115.196 30.1876C115.584 30.4307 115.912 30.771 116.179 31.2085C116.445 31.6459 116.579 32.1077 116.579 32.5939C116.579 33.6876 116.07 34.5018 115.051 35.0365C114.275 35.4497 113.402 35.7292 112.431 35.8751C111.461 36.0209 110.552 36.0938 109.703 36.0938ZM108.684 21.7658C108.102 21.7658 107.593 21.8631 107.156 22.0575C106.744 22.2519 106.404 22.5071 106.138 22.8231C105.871 23.1148 105.665 23.4551 105.519 23.8439C105.398 24.2085 105.325 24.5853 105.301 24.9741L111.522 23.9533C111.449 23.4672 111.182 22.9811 110.722 22.495C110.261 22.0089 109.582 21.7658 108.684 21.7658Z" fill="#0F121E"/>
<path d="M126.504 35.474C126.262 35.5469 125.874 35.6199 125.34 35.6928C124.831 35.7657 124.297 35.8022 123.74 35.8022C123.206 35.8022 122.721 35.7657 122.284 35.6928C121.872 35.6199 121.52 35.474 121.229 35.2553C120.938 35.0365 120.708 34.7449 120.538 34.3803C120.393 33.9914 120.32 33.4932 120.32 32.8855V21.9481C120.32 21.3891 120.417 20.9152 120.611 20.5263C120.829 20.1131 121.132 19.7485 121.52 19.4325C121.908 19.1166 122.381 18.837 122.939 18.594C123.521 18.3266 124.14 18.0957 124.795 17.9013C125.449 17.7069 126.129 17.561 126.832 17.4638C127.535 17.3423 128.239 17.2815 128.942 17.2815C130.106 17.2815 131.028 17.5124 131.707 17.9742C132.386 18.4117 132.726 19.1409 132.726 20.1617C132.726 20.502 132.677 20.8422 132.58 21.1825C132.483 21.4985 132.362 21.7901 132.216 22.0575C131.707 22.0575 131.185 22.0818 130.652 22.1304C130.118 22.179 129.597 22.2519 129.087 22.3492C128.578 22.4464 128.093 22.5558 127.632 22.6773C127.196 22.7745 126.82 22.896 126.504 23.0419V35.474Z" fill="#0F121E"/>
<path d="M136.002 35.5105C135.614 35.1702 135.299 34.7692 135.056 34.3074C134.838 33.8456 134.729 33.323 134.729 32.7397C134.729 32.2536 134.838 31.7796 135.056 31.3178C135.299 30.8317 135.59 30.3821 135.929 29.9689L142.187 22.6044H135.493C135.347 22.337 135.202 21.9967 135.056 21.5835C134.935 21.1704 134.874 20.7207 134.874 20.2346C134.874 19.3839 135.056 18.7763 135.42 18.4117C135.808 18.0228 136.317 17.8284 136.948 17.8284H148.408C148.796 18.1687 149.099 18.5697 149.317 19.0315C149.56 19.4933 149.681 20.0159 149.681 20.5992C149.681 21.0853 149.56 21.5714 149.317 22.0575C149.099 22.5193 148.82 22.9568 148.481 23.37L142.369 30.7345H149.499C149.645 31.0019 149.778 31.3421 149.899 31.7553C150.045 32.1685 150.118 32.6182 150.118 33.1043C150.118 33.955 149.924 34.5747 149.536 34.9636C149.172 35.3282 148.675 35.5105 148.044 35.5105H136.002Z" fill="#0F121E"/>
<path d="M145.984 4.35294C145.984 3.05345 147.037 2 148.337 2C149.636 2 150.689 3.05345 150.689 4.35294V9.05882C150.689 10.3583 149.636 11.4118 148.337 11.4118C147.037 11.4118 145.984 10.3583 145.984 9.05882V4.35294Z" fill="#E4B200"/>
<path d="M136.689 10.1517C135.77 9.23286 135.77 7.74306 136.689 6.82418C137.608 5.9053 139.098 5.9053 140.017 6.82418L143.344 10.1517C144.263 11.0706 144.263 12.5604 143.344 13.4793C142.425 14.3982 140.936 14.3982 140.017 13.4793L136.689 10.1517Z" fill="#E4B200"/>
<path d="M153.327 26.7895C152.409 25.8706 152.409 24.3808 153.327 23.4619C154.246 22.5431 155.736 22.5431 156.655 23.4619L159.983 26.7895C160.901 27.7084 160.901 29.1982 159.983 30.1171C159.064 31.0359 157.574 31.0359 156.655 30.1171L153.327 26.7895Z" fill="#E4B200"/>
<path d="M157.748 20.8235C156.449 20.8235 155.395 19.7701 155.395 18.4706C155.395 17.1711 156.449 16.1176 157.748 16.1176H162.454C163.754 16.1176 164.807 17.1711 164.807 18.4706C164.807 19.7701 163.754 20.8235 162.454 20.8235H157.748Z" fill="#E4B200"/>
<path d="M156.655 13.4793C155.736 14.3982 154.246 14.3982 153.327 13.4793C152.408 12.5604 152.408 11.0706 153.327 10.1518L156.655 6.82419C157.574 5.90531 159.063 5.90531 159.982 6.82419C160.901 7.74307 160.901 9.23287 159.982 10.1518L156.655 13.4793Z" fill="#E4B200"/>
</svg>
