<svg width="70" height="24" viewBox="0 0 70 24" fill="none" xmlns="http://www.w3.org/2000/svg">
<path d="M28.7048 10.587C28.573 11.5753 27.7823 11.5753 27.0575 11.5753H26.6622L26.9916 9.66454C26.9916 9.53276 27.1234 9.46687 27.2552 9.46687H27.4529C27.98 9.46687 28.4412 9.46687 28.7048 9.73043C28.7048 9.99399 28.7048 10.2575 28.7048 10.587ZM28.3753 7.95142H25.5421C25.3444 7.95142 25.2126 8.08319 25.1467 8.28086L24.0266 15.5287C24.0266 15.6605 24.0925 15.7923 24.2902 15.7923H25.608C25.8056 15.7923 25.9374 15.6605 26.0033 15.4628L26.3327 13.4861C26.3327 13.2885 26.5304 13.1567 26.7281 13.1567H27.6505C29.4954 13.1567 30.5497 12.2342 30.8791 10.4552C31.0109 9.66454 30.8791 9.07154 30.5497 8.61031C30.0225 8.21497 29.2978 7.95142 28.3753 7.95142Z" fill="#263577"/>
<path d="M34.8985 13.2227C34.7667 14.0134 34.1737 14.5405 33.383 14.5405C32.9877 14.5405 32.6583 14.4087 32.4606 14.1451C32.2629 13.8816 32.197 13.5521 32.2629 13.2227C32.3947 12.432 32.9877 11.9049 33.7784 11.9049C34.1737 11.9049 34.5032 12.0367 34.7008 12.3002C34.8326 12.4979 34.9644 12.8273 34.8985 13.2227ZM36.7434 10.5871H35.4256C35.2938 10.5871 35.2279 10.653 35.162 10.7848L35.0962 11.1801L35.0303 11.0483C34.7667 10.653 34.1078 10.4553 33.4489 10.4553C31.9335 10.4553 30.6816 11.5754 30.418 13.1568C30.2862 13.9475 30.4839 14.6722 30.9451 15.1994C31.3405 15.6606 31.9335 15.8583 32.6582 15.8583C33.8443 15.8583 34.5031 15.0676 34.5031 15.0676L34.4373 15.4629C34.4373 15.5947 34.5032 15.7265 34.7008 15.7265H35.8868C36.0845 15.7265 36.2163 15.5947 36.2822 15.397L37.007 10.7848C37.007 10.7189 36.9411 10.5871 36.7434 10.5871Z" fill="#263577"/>
<path d="M43.9252 10.5869H42.5415C42.4098 10.5869 42.278 10.6528 42.2121 10.7846L40.3672 13.5519L39.5765 10.9164C39.5106 10.7187 39.3788 10.6528 39.1812 10.6528H37.8634C37.7316 10.6528 37.5998 10.7846 37.6657 10.9822L39.1812 15.331L37.7975 17.3076C37.6657 17.4394 37.7975 17.703 37.9952 17.703H39.3788C39.5106 17.703 39.6424 17.6371 39.7083 17.5053L44.1888 10.9822C44.2547 10.7846 44.1229 10.5869 43.9252 10.5869Z" fill="#263577"/>
<path d="M48.735 10.587C48.6033 11.5753 47.8126 11.5753 47.0878 11.5753H46.6925L47.0219 9.66454C47.0219 9.53276 47.1537 9.46687 47.2855 9.46687H47.4831C48.0103 9.46687 48.4715 9.46687 48.735 9.73043C48.8009 9.99399 48.8009 10.2575 48.735 10.587ZM48.4056 7.95142H45.5724C45.3747 7.95142 45.2429 8.08319 45.177 8.28086L44.0569 15.5287C44.0569 15.6605 44.1228 15.7923 44.3205 15.7923H45.77C45.9018 15.7923 46.0336 15.7264 46.0336 15.5287L46.363 13.4861C46.363 13.2885 46.5607 13.1567 46.7584 13.1567H47.6808C49.5257 13.1567 50.58 12.2342 50.9094 10.4552C51.0412 9.66454 50.9094 9.07154 50.58 8.61031C50.1187 8.21497 49.3939 7.95142 48.4056 7.95142Z" fill="#2199D6"/>
<path d="M54.9947 13.2227C54.8629 14.0134 54.2699 14.5405 53.4792 14.5405C53.0839 14.5405 52.7544 14.4087 52.5568 14.1451C52.3591 13.8816 52.2932 13.5521 52.3591 13.2227C52.4909 12.432 53.0839 11.9049 53.8746 11.9049C54.2699 11.9049 54.5993 12.0367 54.797 12.3002C54.9288 12.4979 55.0606 12.8273 54.9947 13.2227ZM56.8396 10.5871H55.5218C55.39 10.5871 55.3241 10.653 55.2582 10.7848L55.1924 11.1801L55.1265 11.0483C54.8629 10.653 54.204 10.4553 53.5451 10.4553C52.0297 10.4553 50.7778 11.5754 50.5142 13.1568C50.3824 13.9475 50.5801 14.6722 51.0413 15.1994C51.4366 15.6606 52.0297 15.8583 52.7544 15.8583C53.9404 15.8583 54.5993 15.0676 54.5993 15.0676L54.5335 15.4629C54.5335 15.5947 54.5993 15.7265 54.797 15.7265H55.983C56.1807 15.7265 56.3125 15.5947 56.3784 15.397L57.1031 10.7848C57.1031 10.7189 56.9714 10.5871 56.8396 10.5871Z" fill="#2199D6"/>
<path d="M58.4209 8.14908L57.2349 15.5287C57.2349 15.6605 57.3008 15.7923 57.4984 15.7923H58.6844C58.8821 15.7923 59.0139 15.6605 59.0798 15.4628L60.1999 8.21497C60.1999 8.0832 60.134 7.95142 59.9363 7.95142H58.6185C58.5527 7.95142 58.4868 8.08319 58.4209 8.14908Z" fill="#2199D6"/>
<path d="M12.2985 17.1759L12.4961 15.7922H12.0349H9.72876L11.3101 5.71115C11.3101 5.71115 11.3101 5.64526 11.376 5.64526H11.4419H15.3294C16.5813 5.64526 17.5037 5.90882 17.9649 6.43594C18.1626 6.6995 18.2944 6.96305 18.3603 7.22661C18.4262 7.55606 18.4262 7.88551 18.3603 8.34673V8.61029L18.558 8.74207C18.7556 8.80796 18.8874 8.93974 19.0192 9.07152C19.2168 9.26919 19.3486 9.53274 19.3486 9.86219C19.4145 10.1916 19.4145 10.587 19.2827 11.0482C19.151 11.5753 19.0192 11.9707 18.8215 12.366C18.6238 12.6954 18.3603 12.959 18.0967 13.2226C17.8332 13.4202 17.4378 13.552 17.1084 13.6838C16.713 13.7497 16.3177 13.8156 15.8565 13.8156H15.527C15.3294 13.8156 15.1317 13.8814 14.934 14.0132C14.8023 14.145 14.6705 14.3427 14.6046 14.5403V14.6721L14.2092 17.11V17.1759V17.2418C14.2092 17.2418 14.2092 17.2418 14.1434 17.2418H12.2985V17.1759Z" fill="#263577"/>
<path d="M18.8212 8.34668C18.8212 8.41257 18.8212 8.47846 18.7553 8.54435C18.2282 11.1799 16.5151 12.0365 14.2749 12.0365H13.1547C12.8912 12.0365 12.6276 12.2342 12.6276 12.4977L12.0346 16.1875L11.9028 17.2418C11.9028 17.4394 12.0346 17.5712 12.1664 17.5712H14.209C14.4725 17.5712 14.6702 17.3735 14.6702 17.1759V17.0441L15.0655 14.6721V14.5403C15.1314 14.2767 15.3291 14.145 15.5268 14.145H15.8562C17.8329 14.145 19.3483 13.3543 19.7437 11.0481C19.9413 10.0598 19.8096 9.26913 19.3483 8.74202C19.2166 8.61024 19.0189 8.47846 18.8212 8.34668Z" fill="#2199D6"/>
<path d="M18.2942 8.14908C18.2283 8.14908 18.1624 8.0832 18.0306 8.0832C17.9647 8.0832 17.8329 8.0173 17.7671 8.0173C17.4376 7.95142 17.1082 7.95142 16.7787 7.95142H13.7478C13.6819 7.95142 13.616 7.95142 13.5501 8.0173C13.4184 8.08319 13.2866 8.21497 13.2866 8.34675L12.6277 12.4319V12.5637C12.6936 12.3001 12.8912 12.1025 13.1548 12.1025H14.2749C16.5152 12.1025 18.2283 11.18 18.7554 8.61031C18.7554 8.54442 18.7554 8.47853 18.8213 8.41264C18.6895 8.34675 18.5577 8.28086 18.426 8.21497C18.3601 8.14909 18.2942 8.14908 18.2942 8.14908Z" fill="#252C5E"/>
<path d="M13.2866 8.3468C13.2866 8.21502 13.4184 8.08325 13.5502 8.01736C13.6161 8.01736 13.682 7.95147 13.7478 7.95147H16.7788C17.1082 7.95147 17.5035 7.95147 17.7671 8.01736C17.833 8.01736 17.9648 8.01736 18.0307 8.08325C18.0966 8.08325 18.1624 8.14914 18.2942 8.14914C18.3601 8.14914 18.3601 8.14914 18.426 8.21503C18.5578 8.28092 18.6896 8.34681 18.8213 8.41269C18.9531 7.42435 18.8213 6.76546 18.2942 6.17245C17.7012 5.51356 16.647 5.25 15.3292 5.25H11.4417C11.1782 5.25 10.9146 5.44767 10.9146 5.71122L9.33325 15.8582C9.33325 16.0559 9.46503 16.2535 9.6627 16.2535H12.0347L12.6277 12.432L13.2866 8.3468Z" fill="#263577"/>
</svg>
