<svg width="70" height="24" viewBox="0 0 70 24" fill="none" xmlns="http://www.w3.org/2000/svg">
<path d="M42.0324 6.34919C42.0324 5.42027 42.7616 4.66675 43.6595 4.66675C44.559 4.66675 45.2877 5.42027 45.2877 6.34919C45.2877 7.27866 44.559 8.03054 43.6595 8.03054C42.7616 8.03054 42.0324 7.27866 42.0324 6.34919Z" fill="#862165"/>
<path d="M46.7107 6.04268L50.011 5.43232V18.5263H46.7107V6.04268Z" fill="#862165"/>
<path d="M51.5311 6.04268V18.5263H54.8334V5.43232L51.5311 6.04268Z" fill="#862165"/>
<path d="M42.0096 8.94908V18.5263H45.3114V8.94908H42.0096Z" fill="#862165"/>
<path d="M35.5466 13.1386C35.5466 10.3256 37.0965 8.91032 40.1471 8.80868C40.1471 8.80868 40.6981 8.78683 41.0233 8.85841V11.6577C39.0895 11.7266 38.8759 12.4484 38.8759 14.132V18.5263H35.5466V13.1386Z" fill="#862165"/>
<path d="M31.1724 8.9833C31.0542 9.30398 30.5162 10.7634 29.3088 12.2725V5.43232L25.9012 6.12901V18.5263H29.3088V14.6937C30.2955 16.2237 30.7831 18.5263 30.7831 18.5263H34.8638C34.4603 16.792 32.6947 13.5948 32.6947 13.5948C34.28 11.5173 34.9754 9.30484 35.0864 8.93819H31.1892C31.1851 8.94898 31.1795 8.96414 31.1724 8.9833Z" fill="#862165"/>
<path d="M18.8033 9.31194C18.8033 10.2108 19.7699 10.2758 20.1872 10.3037C23.2473 10.5157 25.0712 12.0637 25.0712 14.4456C25.0712 16.5472 23.4403 18.6667 19.8022 18.6667C18.1153 18.6667 16.6759 18.4952 15.3994 18.1482V15.0893C16.2518 15.4516 17.6563 15.8319 19.1031 15.8319C20.4235 15.8319 21.2088 15.3805 21.2088 14.6134C21.2088 13.6878 20.2565 13.6275 19.8913 13.6044L19.8873 13.6041C15.6257 13.3041 15.1667 10.6988 15.1667 9.59281C15.1667 7.67212 16.4856 5.43232 20.2078 5.43232C22.3669 5.43232 23.5308 5.78039 24.5334 6.14267L24.5836 6.15852V9.12944L24.5461 9.11851C24.1436 8.94256 23.6709 8.76989 23.6709 8.76989C22.8216 8.50706 21.634 8.22729 20.716 8.22729C20.194 8.22729 18.8033 8.22729 18.8033 9.31194Z" fill="#862165"/>
</svg>
