<svg width="21" height="21" viewBox="0 0 21 21" fill="none" xmlns="http://www.w3.org/2000/svg">
<path d="M17.1271 7.28095C17.1373 7.42726 17.1373 7.57358 17.1373 7.72124C17.1373 12.2206 13.6977 17.4098 7.40813 17.4098V17.4071C5.55019 17.4098 3.73083 16.8798 2.16675 15.8806C2.43691 15.9129 2.70842 15.9291 2.98061 15.9298C4.52033 15.9311 6.01603 15.4167 7.22735 14.4693C5.76415 14.4417 4.48105 13.4916 4.03282 12.1047C4.54538 12.2031 5.07351 12.1829 5.57659 12.046C3.98136 11.7251 2.83369 10.3293 2.83369 8.70837V8.66522C3.30901 8.92886 3.8412 9.07518 4.38558 9.09136C2.88311 8.09142 2.41998 6.10098 3.32729 4.54476C5.06336 6.67208 7.6248 7.96533 10.3745 8.10221C10.0989 6.91954 10.4754 5.68023 11.3637 4.84886C12.7409 3.55966 14.9069 3.62573 16.2016 4.99652C16.9673 4.84616 17.7013 4.56634 18.373 4.16987C18.1177 4.95809 17.5835 5.62764 16.8698 6.0531C17.5476 5.97354 18.2098 5.79283 18.8334 5.51706C18.3743 6.20212 17.7961 6.79884 17.1271 7.28095Z" fill="#7D8FA9"/>
</svg>
